<?xml version="1.0" encoding="utf-8"?>
<!-- Generator: Adobe Illustrator 25.4.1, SVG Export Plug-In . SVG Version: 6.00 Build 0)  -->
<svg version="1.1" xmlns="http://www.w3.org/2000/svg" xmlns:xlink="http://www.w3.org/1999/xlink" x="0px" y="0px"
	 viewBox="0 0 64 64" style="enable-background:new 0 0 64 64;" xml:space="preserve">
<style type="text/css">
	.st0{fill:#FF5252;stroke:#000000;stroke-width:6.390949e-04;stroke-miterlimit:10;}
	.st1{fill:#1AA1DB;stroke:#000000;stroke-width:6.390949e-04;stroke-miterlimit:10;}
	.st2{fill:#91C965;}
	.st3{fill:#88BA5D;}
	.st4{fill:#9BDC6E;}
	.st5{fill:#3C8763;}
</style>
<g id="net" xmlns:inkscape="http://www.inkscape.org/namespaces/inkscape" xmlns:sodipodi="http://sodipodi.sourceforge.net/DTD/sodipodi-0.dtd" xmlns:svg="http://www.w3.org/2000/svg">
	<g id="g16">
		<path id="path4" class="st0" d="M5.5,24.7c-0.6,0-1.1-0.5-1.1-1.1v-4.3c0-0.6,0.5-1.1,1.1-1.1s1.1,0.5,1.1,1.1v4.3
			C6.6,24.2,6.1,24.7,5.5,24.7 M5.5,34.3c-0.6,0-1.1-0.5-1.1-1.1V30c0-0.6,0.5-1.1,1.1-1.1s1.1,0.5,1.1,1.1v3.2
			C6.6,33.8,6.1,34.3,5.5,34.3 M5.5,44.9c-0.6,0-1.1-0.5-1.1-1.1v-6.4c0-0.6,0.5-1.1,1.1-1.1s1.1,0.5,1.1,1.1v6.4
			C6.6,44.4,6.1,44.9,5.5,44.9"/>
		<path id="path6" class="st0" d="M13.6,53.1c-0.2,0-0.3,0-0.5-0.1l-3.9-1.8c-0.5-0.3-0.8-0.9-0.5-1.4s0.9-0.8,1.4-0.5l3.9,1.8
			c0.5,0.3,0.8,0.9,0.5,1.4C14.4,52.9,14,53.1,13.6,53.1 M21.3,56.8c-0.2,0-0.3,0-0.5-0.1L18,55.3c-0.5-0.3-0.8-0.9-0.5-1.4
			s0.9-0.8,1.4-0.5l2.9,1.4c0.5,0.3,0.8,0.9,0.5,1.4C22.1,56.5,21.7,56.8,21.3,56.8 M27.9,59.8c-0.2,0-0.3,0-0.5-0.1l-2.7-1.3
			c-0.5-0.3-0.8-0.9-0.5-1.4s0.9-0.8,1.4-0.5l2.7,1.3c0.5,0.3,0.8,0.9,0.5,1.4C28.7,59.6,28.3,59.8,27.9,59.8"/>
		<path id="path8" class="st0" d="M58.8,24.7c-0.6,0-1.1-0.5-1.1-1.1v-4.3c0-0.6,0.5-1.1,1.1-1.1s1.1,0.5,1.1,1.1v4.3
			C59.8,24.2,59.4,24.7,58.8,24.7 M58.8,31.1c-0.6,0-1.1-0.5-1.1-1.1v-3.2c0-0.6,0.5-1.1,1.1-1.1s1.1,0.5,1.1,1.1V30
			C59.8,30.6,59.4,31.1,58.8,31.1 M58.8,38.5c-0.6,0-1.1-0.5-1.1-1.1v-3.2c0-0.6,0.5-1.1,1.1-1.1s1.1,0.5,1.1,1.1v3.2
			C59.8,38.1,59.4,38.5,58.8,38.5 M58.8,44.9c-0.6,0-1.1-0.5-1.1-1.1v-3.2c0-0.6,0.5-1.1,1.1-1.1s1.1,0.5,1.1,1.1v3.2
			C59.8,44.4,59.4,44.9,58.8,44.9"/>
		<path id="path10" class="st0" d="M50.6,53.1c-0.4,0-0.8-0.2-1-0.6c-0.3-0.5,0-1.2,0.5-1.4l3.9-1.8c0.5-0.3,1.2,0,1.4,0.5
			c0.3,0.5,0,1.2-0.5,1.4L51.1,53C51,53.1,50.8,53.1,50.6,53.1 M42.9,56.8c-0.4,0-0.8-0.2-1-0.6c-0.3-0.5,0-1.2,0.5-1.4l2.9-1.4
			c0.5-0.2,1.2,0,1.4,0.5c0.3,0.5,0,1.2-0.5,1.4l-2.9,1.4C43.2,56.7,43.1,56.8,42.9,56.8 M36.4,59.8c-0.4,0-0.8-0.2-1-0.6
			c-0.3-0.5,0-1.2,0.5-1.4l2.7-1.3c0.5-0.2,1.2,0,1.4,0.5s0,1.2-0.5,1.4l-2.7,1.3C36.7,59.8,36.5,59.8,36.4,59.8"/>
		<path id="path12" class="st0" d="M38.7,6.5c-0.1,0-0.3,0-0.4-0.1l-2.3-1c-0.5-0.2-0.8-0.8-0.6-1.4c0.2-0.5,0.8-0.8,1.4-0.6l2.3,1
			c0.5,0.2,0.8,0.8,0.6,1.4C39.6,6.2,39.2,6.5,38.7,6.5 M45.6,9.3c-0.1,0-0.3,0-0.4-0.1l-3-1.2c-0.5-0.2-0.8-0.8-0.6-1.4
			C41.8,6.1,42.4,5.8,43,6l3,1.2c0.5,0.2,0.8,0.8,0.6,1.4C46.5,9.1,46.1,9.3,45.6,9.3 M54.5,13c-0.1,0-0.3,0-0.4-0.1l-3.9-1.6
			c-0.5-0.2-0.8-0.8-0.6-1.4c0.2-0.5,0.8-0.8,1.4-0.6l3.9,1.6c0.5,0.2,0.8,0.8,0.6,1.4C55.3,12.7,54.9,13,54.5,13"/>
		<path id="path14" class="st0" d="M25.5,6.5c-0.4,0-0.8-0.2-1-0.7s0-1.2,0.6-1.4l2.3-1c0.5-0.2,1.2,0,1.4,0.6
			c0.2,0.5,0,1.2-0.6,1.4l-2.3,1C25.8,6.4,25.7,6.5,25.5,6.5 M18.6,9.3c-0.4,0-0.8-0.2-1-0.7s0-1.2,0.6-1.4l3-1.2
			c0.5-0.2,1.2,0,1.4,0.6c0.2,0.5,0,1.2-0.6,1.4l-3,1.2C18.9,9.3,18.8,9.3,18.6,9.3 M9.8,13c-0.4,0-0.8-0.2-1-0.7s0-1.2,0.6-1.4
			l3.9-1.6c0.5-0.2,1.2,0,1.4,0.6c0.2,0.5,0,1.2-0.6,1.4l-3.9,1.6C10,12.9,9.9,13,9.8,13"/>
	</g>
	<g id="g32">
		<path id="path24" class="st0" d="M16.2,23.6c-0.2,0-0.4-0.1-0.6-0.2l-6.4-4.3c-0.5-0.3-0.6-1-0.3-1.5s1-0.6,1.5-0.3l6.4,4.3
			c0.5,0.3,0.6,1,0.3,1.5C16.8,23.4,16.5,23.6,16.2,23.6"/>
		<path id="path26" class="st0" d="M48.1,23.6c-0.3,0-0.7-0.2-0.9-0.5c-0.3-0.5-0.2-1.2,0.3-1.5l6.4-4.3c0.5-0.3,1.2-0.2,1.5,0.3
			s0.2,1.2-0.3,1.5l-6.4,4.3C48.5,23.6,48.3,23.6,48.1,23.6"/>
		<path id="path28" class="st0" d="M54.5,46c-0.2,0-0.4-0.1-0.6-0.2l-6.4-4.3c-0.5-0.3-0.6-1-0.3-1.5s1-0.6,1.5-0.3l6.4,4.3
			c0.5,0.3,0.6,1,0.3,1.5C55.2,45.8,54.8,46,54.5,46"/>
		<path id="path30" class="st0" d="M9.8,46c-0.3,0-0.7-0.2-0.9-0.5C8.6,45,8.7,44.4,9.2,44l6.4-4.3c0.5-0.3,1.2-0.2,1.5,0.3
			s0.2,1.2-0.3,1.5l-6.4,4.3C10.2,45.9,10,46,9.8,46"/>
	</g>
	<g id="g46">
		<path id="path34" class="st1" d="M5.5,20.4c-2.9,0-5.3-2.4-5.3-5.3s2.4-5.3,5.3-5.3s5.3,2.4,5.3,5.3S8.4,20.4,5.5,20.4"/>
		<path id="path36" class="st1" d="M32.1,10.8c-2.9,0-5.3-2.4-5.3-5.3s2.4-5.3,5.3-5.3s5.3,2.4,5.3,5.3S35.1,10.8,32.1,10.8"/>
		<path id="path38" class="st1" d="M32.1,64.1c-2.9,0-5.3-2.4-5.3-5.3c0-2.9,2.4-5.3,5.3-5.3s5.3,2.4,5.3,5.3S35.1,64.1,32.1,64.1"
			/>
		<path id="path40" class="st1" d="M58.8,20.4c-2.9,0-5.3-2.4-5.3-5.3s2.4-5.3,5.3-5.3c2.9,0,5.3,2.4,5.3,5.3S61.7,20.4,58.8,20.4"
			/>
		<path id="path42" class="st1" d="M58.8,53.4c-2.9,0-5.3-2.4-5.3-5.3c0-2.9,2.4-5.3,5.3-5.3c2.9,0,5.3,2.4,5.3,5.3
			S61.7,53.4,58.8,53.4"/>
		<path id="path44" class="st1" d="M5.5,53.4c-2.9,0-5.3-2.4-5.3-5.3s2.4-5.3,5.3-5.3s5.3,2.4,5.3,5.3S8.4,53.4,5.5,53.4"/>
	</g>
</g>
<g id="cube">
	<g>
		<polygon id="polygon18" class="st2" points="16.7,41.6 16.7,22.6 32.2,30.7 32.2,49.5 		"/>
		<polygon id="polygon20" class="st3" points="47.8,41.6 47.8,22.6 32.2,30.7 32.2,49.6 		"/>
		<polygon id="polygon22" class="st4" points="16.7,22.6 32.5,14.6 47.8,22.6 32.2,30.7 		"/>
		<path id="path4_00000163069267588332021340000012919285466319501952_" class="st5" d="M48.4,22.7C48.4,22.6,48.4,22.6,48.4,22.7
			C48.4,22.6,48.4,22.6,48.4,22.7c0-0.1,0-0.1,0-0.2c0,0,0,0,0,0c0,0,0,0,0-0.1c0,0,0,0,0,0c0,0,0,0,0-0.1c0,0,0,0,0,0
			c0,0,0,0,0-0.1c0,0,0,0,0,0c0,0,0,0-0.1-0.1c0,0,0,0,0,0c0,0,0,0,0,0c0,0,0,0,0,0c0,0,0,0-0.1,0c0,0,0,0,0,0l-15.5-8
			c-0.2-0.1-0.4-0.1-0.6,0l-15.5,8c0,0,0,0,0,0c0,0,0,0-0.1,0c0,0,0,0,0,0c0,0,0,0,0,0c0,0,0,0,0,0c0,0,0,0,0,0.1c0,0,0,0,0,0
			c0,0,0,0,0,0.1c0,0,0,0,0,0c0,0,0,0,0,0.1c0,0,0,0,0,0c0,0,0,0,0,0.1c0,0,0,0,0,0c0,0,0,0,0,0.1c0,0,0,0,0,0c0,0,0,0.1,0,0.1v18.8
			c0,0,0,0,0,0c0,0,0,0,0,0c0,0,0,0,0,0c0,0,0,0,0,0c0,0,0,0,0,0c0,0,0,0,0,0c0,0,0,0,0,0c0,0,0,0,0,0c0,0,0,0,0,0c0,0,0,0,0,0
			c0,0,0,0,0,0c0,0,0,0,0,0c0,0,0,0,0,0c0,0,0,0,0,0c0,0,0,0,0,0c0,0,0,0,0,0c0,0,0,0,0,0c0,0,0,0,0,0c0,0,0,0,0,0c0,0,0,0,0,0
			c0,0,0,0,0,0c0,0,0,0,0,0c0,0,0,0,0,0c0,0,0,0,0,0l5.2,2.6c0,0,0,0,0.1,0l5.1,2.6c0,0,0.1,0.1,0.2,0.1L32,50c0,0,0,0,0,0
			c0,0,0,0,0,0c0,0,0,0,0,0c0,0,0,0,0,0c0,0,0,0,0,0c0,0,0,0,0,0c0,0,0,0,0,0c0,0,0,0,0,0c0,0,0,0,0,0c0,0,0,0,0,0c0,0,0,0,0,0
			c0,0,0,0,0,0c0,0,0,0,0,0c0,0,0,0,0,0c0,0,0,0,0,0c0,0,0,0,0,0c0,0,0,0,0,0c0,0,0,0,0,0c0,0,0,0,0,0c0,0,0,0,0,0c0,0,0,0,0,0
			c0,0,0,0,0,0c0,0,0,0,0,0c0,0,0,0,0,0c0,0,0,0,0,0c0,0,0,0,0,0c0,0,0,0,0,0c0,0,0,0,0,0l5.1-2.6c0.1,0,0.1,0,0.2-0.1l5.1-2.6
			c0,0,0,0,0.1,0l5.2-2.6c0,0,0,0,0,0c0,0,0,0,0,0c0,0,0,0,0,0c0,0,0,0,0,0c0,0,0,0,0,0c0,0,0,0,0,0c0,0,0,0,0,0c0,0,0,0,0,0
			c0,0,0,0,0,0c0,0,0,0,0,0c0,0,0,0,0,0c0,0,0,0,0,0c0,0,0,0,0,0c0,0,0,0,0,0c0,0,0,0,0,0c0,0,0,0,0,0c0,0,0,0,0,0c0,0,0,0,0,0
			c0,0,0,0,0,0c0,0,0,0,0,0c0,0,0,0,0,0c0,0,0,0,0,0c0,0,0,0,0,0c0,0,0,0,0,0L48.4,22.7L48.4,22.7z M27.1,18l3.9,2l-3.9,2l-3.9-2
			L27.1,18z M32.2,20.7l3.9,2l-3.9,2l-3.9-2L32.2,20.7z M41.3,20l-3.9,2l-3.9-2l3.9-2L41.3,20z M17.3,30.2l4,2v4.4l-4-2V30.2z
			 M22.5,32.9l4,2v4.4l-4-2V32.9z M31.6,36.2l-4-2V29l4,2V36.2z M32.8,31l4-2v5.2l-4,2V31z M38,28.3l4-2v5.2l-4,2V28.3z M32.2,29.9
			l-3.8-2l3.8-2l3.8,2L32.2,29.9z M26.5,33.5l-4-2v-5.2l4,2V33.5z M27.7,35.5l4,2V42l-4-2V35.5z M32.8,37.5l4-2v4.4l-4,2V37.5z
			 M38,34.9l4-2v4.4l-4,2V34.9z M43.2,32.2l4-2v4.4l-4,2V32.2z M47.2,28.8l-4,2v-5.2l4-2V28.8z M37.4,27.3l-3.8-2l3.9-2l3.8,2
			L37.4,27.3z M30.9,25.3l-3.8,2l-3.9-2l3.8-2L30.9,25.3z M21.3,30.9l-4-2v-5.2l4,2V30.9z M17.3,36l4,2v5.1l-4-2V36z M22.5,38.6l4,2
			v5.1l-4-2V38.6z M27.7,41.3l4,2v5.1l-4-2V41.3z M32.8,43.3l4-2v5.1l-4,2V43.3z M38,40.7l4-2v5.1l-4,2V40.7z M43.2,38l4-2v5.1l-4,2
			V38z M42.6,24.6l-3.8-2l3.9-2l3.8,2L42.6,24.6z M32.2,15.4l3.9,2l-3.9,2l-3.9-2L32.2,15.4z M21.9,20.7l3.9,2l-3.8,2l-3.9-2
			L21.9,20.7z"/>
	</g>
</g>
</svg>
