<?xml version="1.0" encoding="UTF-8" standalone="no"?>
<!-- Uploaded to: SVG Repo, www.svgrepo.com, Transformed by: SVG Repo Mixer Tools -->

<svg
   height="64px"
   width="64px"
   version="1.1"
   id="Layer_1"
   viewBox="-51.2 -51.2 614.40 614.40"
   xml:space="preserve"
   fill="#000000"
   stroke="#000000"
   stroke-width="0.00512"
   sodipodi:docname="img_encoder.svg"
   inkscape:version="1.2.2 (b0a84865, 2022-12-01)"
   xmlns:inkscape="http://www.inkscape.org/namespaces/inkscape"
   xmlns:sodipodi="http://sodipodi.sourceforge.net/DTD/sodipodi-0.dtd"
   xmlns="http://www.w3.org/2000/svg"
   xmlns:svg="http://www.w3.org/2000/svg"><defs
   id="defs54" /><sodipodi:namedview
   id="namedview52"
   pagecolor="#505050"
   bordercolor="#eeeeee"
   borderopacity="1"
   inkscape:showpageshadow="0"
   inkscape:pageopacity="0"
   inkscape:pagecheckerboard="0"
   inkscape:deskcolor="#505050"
   showgrid="false"
   inkscape:zoom="3.6875"
   inkscape:cx="14.508475"
   inkscape:cy="32.542373"
   inkscape:window-width="1158"
   inkscape:window-height="916"
   inkscape:window-x="177"
   inkscape:window-y="136"
   inkscape:window-maximized="0"
   inkscape:current-layer="Layer_1" />

<g
   id="SVGRepo_bgCarrier"
   stroke-width="0"
   transform="matrix(1.198303,0,0,1.1983032,-49.463898,-49.463899)" />

<g
   id="SVGRepo_tracerCarrier"
   stroke-linecap="round"
   stroke-linejoin="round"
   stroke="#cccccc"
   stroke-width="7.168"
   transform="matrix(1.198303,0,0,1.1983032,-49.463898,-49.463899)" />

<g
   id="SVGRepo_iconCarrier"
   transform="matrix(1.198303,0,0,1.1983032,-49.463898,-49.463899)"> <g
   id="g48"> <g
   id="g16"> <path
   style="fill:#ff5252"
   d="m 42.667,196.267 c -4.71,0 -8.533,-3.814 -8.533,-8.533 V 153.6 c 0,-4.719 3.823,-8.533 8.533,-8.533 4.71,0 8.533,3.814 8.533,8.533 v 34.133 c 0,4.719 -3.823,8.534 -8.533,8.534 m 0,76.8 c -4.71,0 -8.533,-3.814 -8.533,-8.533 v -25.6 c 0,-4.719 3.823,-8.533 8.533,-8.533 4.71,0 8.533,3.814 8.533,8.533 v 25.6 c 0,4.718 -3.823,8.533 -8.533,8.533 m 0,85.333 c -4.71,0 -8.533,-3.814 -8.533,-8.533 v -51.2 c 0,-4.719 3.823,-8.533 8.533,-8.533 4.71,0 8.533,3.814 8.533,8.533 v 51.2 c 0,4.719 -3.823,8.533 -8.533,8.533"
   id="path4" /> <path
   style="fill:#ff5252"
   d="m 107.68,424.133 c -1.22,0 -2.458,-0.256 -3.627,-0.811 L 73.171,408.79 c -4.267,-2.005 -6.101,-7.091 -4.087,-11.358 2.005,-4.275 7.091,-6.093 11.349,-4.087 l 30.882,14.532 c 4.267,2.005 6.101,7.091 4.087,11.358 -1.45,3.089 -4.522,4.898 -7.722,4.898 m 61.772,29.065 c -1.22,0 -2.458,-0.256 -3.635,-0.802 L 142.658,441.49 c -4.258,-2.005 -6.093,-7.091 -4.087,-11.358 2.005,-4.267 7.1,-6.076 11.358,-4.087 l 23.159,10.897 c 4.267,2.005 6.093,7.091 4.087,11.358 -1.451,3.089 -4.523,4.898 -7.723,4.898 m 52.412,24.67 c -1.22,0 -2.458,-0.256 -3.627,-0.811 l -21.53,-10.129 c -4.267,-2.014 -6.101,-7.091 -4.087,-11.358 2.005,-4.267 7.1,-6.084 11.349,-4.096 l 21.53,10.138 c 4.267,2.005 6.093,7.091 4.087,11.358 -1.45,3.089 -4.522,4.898 -7.722,4.898"
   id="path6" /> <path
   style="fill:#ff5252"
   d="m 469.333,196.267 c -4.719,0 -8.533,-3.814 -8.533,-8.533 V 153.6 c 0,-4.719 3.814,-8.533 8.533,-8.533 4.719,0 8.533,3.814 8.533,8.533 v 34.133 c 0.001,4.719 -3.814,8.534 -8.533,8.534 m 0,51.2 c -4.719,0 -8.533,-3.814 -8.533,-8.533 v -25.6 c 0,-4.719 3.814,-8.533 8.533,-8.533 4.719,0 8.533,3.814 8.533,8.533 v 25.6 c 0.001,4.718 -3.814,8.533 -8.533,8.533 m 0,59.733 c -4.719,0 -8.533,-3.814 -8.533,-8.533 v -25.6 c 0,-4.719 3.814,-8.533 8.533,-8.533 4.719,0 8.533,3.814 8.533,8.533 v 25.6 c 0.001,4.719 -3.814,8.533 -8.533,8.533 m 0,51.2 c -4.719,0 -8.533,-3.814 -8.533,-8.533 v -25.6 c 0,-4.719 3.814,-8.533 8.533,-8.533 4.719,0 8.533,3.814 8.533,8.533 v 25.6 c 0.001,4.719 -3.814,8.533 -8.533,8.533"
   id="path8" /> <path
   style="fill:#ff5252"
   d="m 404.325,424.133 c -3.209,0 -6.272,-1.809 -7.731,-4.898 -2.005,-4.267 -0.171,-9.353 4.087,-11.358 l 30.882,-14.532 c 4.275,-2.005 9.353,-0.179 11.358,4.087 2.005,4.266 0.179,9.353 -4.087,11.358 l -30.882,14.532 c -1.178,0.555 -2.407,0.811 -3.627,0.811 m -61.773,29.065 c -3.2,0 -6.272,-1.809 -7.731,-4.898 -2.005,-4.267 -0.171,-9.353 4.087,-11.358 l 23.168,-10.897 c 4.258,-1.997 9.344,-0.179 11.349,4.087 2.014,4.267 0.179,9.353 -4.087,11.358 l -23.159,10.906 c -1.178,0.546 -2.415,0.802 -3.627,0.802 m -52.412,24.67 c -3.2,0 -6.272,-1.809 -7.731,-4.898 -2.005,-4.267 -0.179,-9.353 4.087,-11.358 l 21.53,-10.138 c 4.258,-1.988 9.353,-0.171 11.358,4.096 2.005,4.267 0.179,9.344 -4.087,11.358 l -21.53,10.129 c -1.178,0.555 -2.407,0.811 -3.627,0.811"
   id="path10" /> <path
   style="fill:#ff5252"
   d="m 308.946,50.417 c -1.084,0 -2.185,-0.205 -3.243,-0.64 l -18.816,-7.748 c -4.361,-1.801 -6.434,-6.784 -4.642,-11.145 1.792,-4.352 6.793,-6.417 11.136,-4.642 l 18.816,7.748 c 4.361,1.801 6.434,6.784 4.642,11.145 -1.357,3.293 -4.539,5.282 -7.893,5.282 m 55.236,22.741 c -1.084,0 -2.185,-0.205 -3.251,-0.64 L 337.26,62.764 c -4.352,-1.801 -6.434,-6.784 -4.642,-11.136 1.801,-4.352 6.793,-6.409 11.145,-4.642 l 23.671,9.745 c 4.361,1.801 6.434,6.784 4.642,11.145 -1.357,3.294 -4.54,5.282 -7.894,5.282 m 71.015,29.244 c -1.084,0 -2.176,-0.213 -3.243,-0.64 L 400.389,88.757 c -4.352,-1.801 -6.434,-6.784 -4.642,-11.136 1.801,-4.361 6.784,-6.409 11.145,-4.642 l 31.556,12.996 c 4.361,1.801 6.434,6.784 4.642,11.145 -1.357,3.285 -4.54,5.282 -7.893,5.282"
   id="path12" /> <path
   style="fill:#ff5252"
   d="m 203.054,50.417 c -3.354,0 -6.537,-1.988 -7.893,-5.282 -1.792,-4.361 0.282,-9.344 4.642,-11.145 l 18.816,-7.748 c 4.343,-1.783 9.335,0.282 11.136,4.642 1.792,4.361 -0.282,9.344 -4.642,11.145 l -18.816,7.748 c -1.058,0.435 -2.159,0.64 -3.243,0.64 m -55.236,22.741 c -3.354,0 -6.537,-1.988 -7.893,-5.282 -1.792,-4.361 0.282,-9.344 4.642,-11.145 l 23.671,-9.745 c 4.343,-1.775 9.344,0.282 11.145,4.642 1.792,4.352 -0.29,9.335 -4.642,11.136 l -23.671,9.754 c -1.068,0.435 -2.168,0.64 -3.252,0.64 m -71.015,29.244 c -3.354,0 -6.537,-1.997 -7.893,-5.282 -1.792,-4.361 0.282,-9.344 4.642,-11.145 l 31.556,-12.996 c 4.361,-1.783 9.344,0.282 11.145,4.642 1.792,4.352 -0.282,9.335 -4.642,11.136 l -31.565,13.005 c -1.058,0.426 -2.159,0.64 -3.243,0.64"
   id="path14" /> </g> <polygon
   style="fill:#1b8746"
   points="170.667,298.667 170.667,204.8 256,238.933 256,341.333 "
   id="polygon18" /> <polygon
   style="fill:#136832"
   points="341.333,298.667 341.333,204.8 256,238.933 256,341.333 "
   id="polygon20" /> <polygon
   style="fill:#24ae5f"
   points="170.667,204.8 256,162.133 341.333,204.8 256,238.933 "
   id="polygon22" /> <g
   id="g32"> <path
   style="fill:#ff5252"
   d="m 127.991,187.733 c -1.621,0 -3.268,-0.469 -4.727,-1.434 l -51.2,-34.133 c -3.917,-2.62 -4.975,-7.91 -2.364,-11.836 2.62,-3.925 7.902,-4.983 11.836,-2.364 l 51.2,34.133 c 3.917,2.62 4.975,7.91 2.364,11.836 -1.647,2.467 -4.352,3.798 -7.109,3.798"
   id="path24" /> <path
   style="fill:#ff5252"
   d="m 384.009,187.733 c -2.756,0 -5.461,-1.331 -7.108,-3.797 -2.611,-3.925 -1.553,-9.216 2.364,-11.836 l 51.2,-34.133 c 3.934,-2.62 9.225,-1.562 11.836,2.364 2.62,3.925 1.562,9.216 -2.364,11.836 l -51.2,34.133 c -1.46,0.964 -3.107,1.433 -4.728,1.433"
   id="path26" /> <path
   style="fill:#ff5252"
   d="m 435.191,366.933 c -1.621,0 -3.268,-0.469 -4.727,-1.434 l -51.2,-34.133 c -3.917,-2.62 -4.975,-7.91 -2.364,-11.836 2.611,-3.925 7.91,-4.983 11.836,-2.364 l 51.2,34.133 c 3.925,2.62 4.983,7.91 2.364,11.836 -1.639,2.467 -4.352,3.798 -7.109,3.798"
   id="path28" /> <path
   style="fill:#ff5252"
   d="m 76.809,366.933 c -2.756,0 -5.461,-1.331 -7.108,-3.797 -2.611,-3.925 -1.553,-9.216 2.364,-11.836 l 51.2,-34.133 c 3.917,-2.62 9.216,-1.562 11.836,2.364 2.611,3.925 1.553,9.216 -2.364,11.836 l -51.2,34.133 c -1.46,0.964 -3.107,1.433 -4.728,1.433"
   id="path30" /> </g> <g
   id="g46"> <path
   style="fill:#1aa1db"
   d="M 42.667,162.133 C 19.14,162.133 0,142.993 0,119.467 0,95.941 19.14,76.8 42.667,76.8 c 23.527,0 42.667,19.14 42.667,42.667 0,23.527 -19.141,42.666 -42.667,42.666"
   id="path34" /> <path
   style="fill:#1aa1db"
   d="m 256,85.333 c -23.526,0 -42.667,-19.14 -42.667,-42.667 C 213.333,19.139 232.474,0 256,0 c 23.526,0 42.667,19.14 42.667,42.667 0,23.527 -19.141,42.666 -42.667,42.666"
   id="path36" /> <path
   style="fill:#1aa1db"
   d="m 256,512 c -23.526,0 -42.667,-19.14 -42.667,-42.667 0,-23.526 19.14,-42.667 42.667,-42.667 23.526,0 42.667,19.14 42.667,42.667 C 298.667,492.86 279.526,512 256,512"
   id="path38" /> <path
   style="fill:#1aa1db"
   d="m 469.333,162.133 c -23.526,0 -42.667,-19.14 -42.667,-42.667 0,-23.527 19.141,-42.666 42.667,-42.666 23.527,0 42.667,19.14 42.667,42.667 0,23.527 -19.14,42.666 -42.667,42.666"
   id="path40" /> <path
   style="fill:#1aa1db"
   d="m 469.333,426.667 c -23.526,0 -42.667,-19.14 -42.667,-42.667 0,-23.527 19.14,-42.667 42.667,-42.667 23.527,0 42.667,19.141 42.667,42.667 0,23.526 -19.14,42.667 -42.667,42.667"
   id="path42" /> <path
   style="fill:#1aa1db"
   d="M 42.667,426.667 C 19.14,426.667 0,407.526 0,384 c 0,-23.526 19.14,-42.667 42.667,-42.667 23.527,0 42.666,19.141 42.666,42.667 0,23.526 -19.14,42.667 -42.666,42.667"
   id="path44" /> </g> </g> </g>

</svg>
